HIERARCHY
ROOT Hips
{
	OFFSET 0.000000 0.000000 0.000000
	CHANNELS 6 Xposition Yposition Zposition Yrotation Xrotation Zrotation
	JOINT Chest
	{
		OFFSET 0.000000 -0.009281 11.569106
		CHANNELS 3 Yrotation Xrotation Zrotation
		JOINT Chest2
		{
			OFFSET -0.000000 0.016865 9.269641
			CHANNELS 3 Yrotation Xrotation Zrotation
			JOINT Chest3
			{
				OFFSET -0.000000 0.000001 8.374491
				CHANNELS 3 Yrotation Xrotation Zrotation
				JOINT Chest4
				{
					OFFSET -0.000000 0.000001 8.374493
					CHANNELS 3 Yrotation Xrotation Zrotation
					JOINT Neck
					{
						OFFSET -0.000000 0.000002 12.152554
						CHANNELS 3 Yrotation Xrotation Zrotation
						JOINT Head
						{
							OFFSET -0.000000 0.040101 7.802319
							CHANNELS 3 Yrotation Xrotation Zrotation
							End Site
							{
								OFFSET -0.000000 0.020947 14.853096
							}
						}
					}
					JOINT RightCollar
					{
						OFFSET 2.894404 0.000001 6.791374
						CHANNELS 3 Yrotation Xrotation Zrotation
						JOINT RightShoulder
						{
							OFFSET 13.574684 0.000001 0.000000
							CHANNELS 3 Yrotation Xrotation Zrotation
							JOINT RightElbow
							{
								OFFSET 23.923903 0.000002 0.000000
								CHANNELS 3 Yrotation Xrotation Zrotation
								JOINT RightWrist
								{
									OFFSET 19.846718 0.012767 0.000000
									CHANNELS 3 Yrotation Xrotation Zrotation
									End Site
									{
										OFFSET 14.973145 0.000001 0.000000
									}
								}
							}
						}
					}
					JOINT LeftCollar
					{
						OFFSET -2.894404 0.000001 6.791374
						CHANNELS 3 Yrotation Xrotation Zrotation
						JOINT LeftShoulder
						{
							OFFSET -13.574684 -0.000001 0.000000
							CHANNELS 3 Yrotation Xrotation Zrotation
							JOINT LeftElbow
							{
								OFFSET -23.923903 -0.000002 0.000000
								CHANNELS 3 Yrotation Xrotation Zrotation
								JOINT LeftWrist
								{
									OFFSET -19.846718 0.012763 0.000000
									CHANNELS 3 Yrotation Xrotation Zrotation
									End Site
									{
										OFFSET -14.973145 -0.000001 0.000000
									}
								}
							}
						}
					}
				}
			}
		}
	}
	JOINT RightHip
	{
		OFFSET 9.469263 0.004643 0.045487
		CHANNELS 3 Yrotation Xrotation Zrotation
		JOINT RightKnee
		{
			OFFSET 0.000000 0.002661 -40.478676
			CHANNELS 3 Yrotation Xrotation Zrotation
			JOINT RightAnkle
			{
				OFFSET 0.000000 0.049106 -35.224068
				CHANNELS 3 Yrotation Xrotation Zrotation
				JOINT RightToe
				{
					OFFSET -0.000001 12.539529 -6.151390
					CHANNELS 3 Yrotation Xrotation Zrotation
					End Site
					{
						OFFSET -0.000001 5.044994 -1.291870
					}
				}
			}
		}
	}
	JOINT LeftHip
	{
		OFFSET -9.469263 0.004641 0.045487
		CHANNELS 3 Yrotation Xrotation Zrotation
		JOINT LeftKnee
		{
			OFFSET 0.000000 0.002661 -40.478676
			CHANNELS 3 Yrotation Xrotation Zrotation
			JOINT LeftAnkle
			{
				OFFSET 0.000000 0.049106 -35.224068
				CHANNELS 3 Yrotation Xrotation Zrotation
				JOINT LeftToe
				{
					OFFSET -0.000001 12.539529 -6.151390
					CHANNELS 3 Yrotation Xrotation Zrotation
					End Site
					{
						OFFSET -0.000001 5.044994 -1.291870
					}
				}
			}
		}
	}
}
MOTION
Frames: 8
Frame Time: 0.016667
8.658884 7.476536 83.164719 -5.086399 -1.635940 -108.795440 -0.704692 -4.110280 1.314142 -0.303564 -1.827362 0.581815 -0.303564 -1.827362 0.581812 -0.225913 -1.370813 0.435417 1.019467 -16.843306 -2.994727 0.837155 4.891930 -5.190379 3.212054 20.727934 -4.464612 32.774485 48.777513 25.678048 -30.626216 4.282156 61.518414 -26.469500 -14.919353 6.795672 -5.583649 16.262276 -1.862425 -31.570565 49.056539 -26.388547 6.538368 8.761012 -59.891641 48.655481 -24.754660 -26.183672 -0.556963 -4.639555 -2.795717 1.493575 -3.493837 -6.793065 -0.698512 2.359895 2.141083 0.003167 -0.081735 -0.025639 -0.958010 -5.522294 -0.701429 0.556699 -2.149322 1.616041 0.444173 2.162073 1.674653 -0.104496 -0.115316 0.021466 
8.661161 7.463052 83.162254 -5.104565 -1.629833 -108.763926 -0.763247 -4.105081 1.335683 -0.329329 -1.825216 0.591062 -0.329329 -1.825216 0.591066 -0.245211 -1.369232 0.442277 1.098168 -17.099000 -3.011039 0.985591 4.419633 -5.189096 3.576523 20.822255 -4.203695 33.511391 49.051902 24.759986 -30.820129 4.607322 62.431972 -29.668224 -12.967793 8.781370 -6.014935 15.935955 -2.479424 -32.132338 49.806692 -25.906417 6.791647 8.311760 -60.295448 51.575827 -22.161355 -29.543041 -0.552150 -4.685257 -2.879085 1.484570 -3.452688 -6.764357 -0.708645 2.368659 2.162100 0.003152 -0.085881 -0.026092 -0.968856 -5.535914 -0.678170 0.574985 -2.160599 1.610266 0.452136 2.191743 1.636790 -0.100277 -0.110873 0.021888 
8.662225 7.445764 83.162193 -5.127654 -1.627006 -108.712241 -0.801938 -4.119614 1.343928 -0.346977 -1.832166 0.593925 -0.346977 -1.832166 0.593927 -0.258430 -1.374464 0.444367 1.172304 -17.321467 -3.027602 1.124127 4.008822 -5.190900 3.985909 20.545738 -3.911978 34.522447 49.650001 24.264032 -31.174694 4.812127 63.227894 -32.958856 -10.803661 10.758513 -6.298273 15.685425 -2.835454 -33.176479 50.280380 -25.684291 6.704996 8.126766 -60.764040 53.988336 -19.661584 -32.729515 -0.544172 -4.747478 -2.964313 1.480748 -3.393584 -6.760111 -0.724339 2.365384 2.205390 0.004356 -0.083993 -0.024661 -0.965812 -5.551338 -0.679260 0.579377 -2.174679 1.573691 0.459175 2.215749 1.635052 -0.092460 -0.103477 0.022369 
8.663736 7.433781 83.161720 -5.146576 -1.628845 -108.652430 -0.810062 -4.111887 1.321982 -0.349302 -1.829213 0.583607 -0.349301 -1.829213 0.583605 -0.260207 -1.372246 0.436621 1.205027 -17.540817 -3.022509 1.193281 3.602807 -5.167404 4.329716 20.129375 -3.703720 35.668686 50.427645 24.021338 -31.375348 4.694229 63.966204 -36.373831 -8.503212 12.781537 -6.544857 15.181342 -3.011951 -34.423757 50.803620 -25.546226 6.127153 8.103998 -61.397759 56.085767 -16.843100 -35.537461 -0.530613 -4.806467 -3.020678 1.476554 -3.335521 -6.774093 -0.733983 2.362086 2.213508 0.002795 -0.081459 -0.024806 -0.955249 -5.565666 -0.704383 0.571653 -2.181821 1.534804 0.479044 2.234993 1.650050 -0.087369 -0.098325 0.021246 
8.666824 7.424998 83.159576 -5.154353 -1.635768 -108.607890 -0.793089 -4.091551 1.268372 -0.340084 -1.819735 0.559886 -0.340084 -1.819735 0.559887 -0.253374 -1.365115 0.418868 1.193131 -17.753852 -2.980928 1.192143 3.207691 -5.092126 4.613054 19.921234 -3.526642 36.629782 51.050760 23.667166 -31.270682 4.376460 64.581269 -39.694867 -6.059641 14.921443 -6.805994 14.281993 -3.060626 -35.900250 51.551095 -25.664911 5.503211 8.125436 -62.081352 57.824354 -13.769696 -37.951417 -0.516759 -4.857150 -3.049203 1.478665 -3.272829 -6.787267 -0.740535 2.356990 2.206730 -0.000514 -0.080926 -0.024071 -0.942053 -5.577183 -0.710262 0.568342 -2.180889 1.517943 0.499757 2.255207 1.638257 -0.084708 -0.096891 0.019983 
8.670995 7.418991 83.157028 -5.151331 -1.645785 -108.591566 -0.818558 -4.063370 1.239249 -0.349412 -1.806493 0.545763 -0.349412 -1.806494 0.545765 -0.260424 -1.355185 0.408255 1.224265 -17.956161 -2.941959 1.268794 2.833760 -5.007518 5.041424 20.159332 -3.219844 36.999736 51.259378 22.622712 -30.786057 4.220570 65.017670 -42.674011 -3.372048 17.291806 -6.990965 13.180437 -3.155558 -37.522071 52.494054 -26.050917 5.261977 8.059588 -62.555585 59.123292 -10.743426 -40.102144 -0.504479 -4.886492 -3.058322 1.487037 -3.228377 -6.793456 -0.743951 2.355271 2.202185 -0.006623 -0.077865 -0.024702 -0.926950 -5.587079 -0.657654 0.564296 -2.171266 1.507041 0.519367 2.275688 1.601890 -0.079860 -0.096723 0.019961 
8.671936 7.415691 83.155334 -5.149203 -1.651029 -108.594161 -0.878672 -4.054383 1.235787 -0.375986 -1.802730 0.542551 -0.375986 -1.802730 0.542550 -0.280366 -1.352383 0.405775 1.311218 -18.133823 -2.921227 1.440973 2.506896 -4.938521 5.584640 20.400315 -2.753450 37.265751 51.373725 21.398419 -30.251902 4.339405 65.218560 -45.197882 -0.428294 19.654026 -7.271582 12.565147 -3.439682 -38.620553 53.144510 -25.999320 5.271742 8.032468 -62.838908 59.919815 -8.126142 -42.039159 -0.501869 -4.896343 -3.052366 1.497387 -3.211291 -6.798045 -0.747131 2.359649 2.198858 -0.010915 -0.073180 -0.025194 -0.918050 -5.595626 -0.590607 0.563634 -2.157945 1.490370 0.526553 2.284493 1.562360 -0.068933 -0.090703 0.021261 
8.670314 7.410609 83.154160 -5.158313 -1.655911 -108.603177 -0.926597 -4.039625 1.240800 -0.399104 -1.796380 0.543773 -0.399104 -1.796379 0.543775 -0.297705 -1.347641 0.406625 1.404661 -18.324119 -2.918097 1.619240 2.156379 -4.900206 6.085077 20.211947 -2.270185 37.840163 51.702623 20.472107 -30.050418 4.534340 65.343470 -47.471840 2.458631 21.513414 -7.670287 12.378200 -3.768494 -39.456391 53.451052 -25.602529 5.239774 7.997744 -63.059004 60.475287 -6.000951 -43.830413 -0.496538 -4.909501 -3.051146 1.497160 -3.203784 -6.799928 -0.747644 2.363564 2.196772 -0.014071 -0.067270 -0.024339 -0.907695 -5.611127 -0.552091 0.554678 -2.150477 1.482248 0.528806 2.291722 1.536007 -0.054632 -0.082767 0.023236 
